<svg xmlns="http://www.w3.org/2000/svg" viewBox="0 0 100 150">
  <!-- Human silhouette in sitting/crouching pose -->
  <circle fill="#000000" cx="50" cy="20" r="12"/>
  <path fill="#000000" d="M50 34 C45 34 40 36 37 40 L32 48 L25 60 C23 63 24 67 27 69 C30 71 34 70 36 67 L42 56 L42 75 L40 110 L35 145 C34 147 35 150 38 150 L46 150 C48 150 50 148 50 145 L50 95 L50 95 L50 145 C50 148 52 150 54 150 L62 150 C65 150 66 147 65 145 L60 110 L58 75 L58 56 L64 67 C66 70 70 71 73 69 C76 67 77 63 75 60 L68 48 L63 40 C60 36 55 34 50 34 Z"/>
</svg>
