<svg xmlns="http://www.w3.org/2000/svg" viewBox="0 0 100 150">
  <!-- Human silhouette in standing pose with arms slightly out -->
  <path fill="#000000" d="M50 10 C57 10 62 15 62 22 C62 29 57 34 50 34 C43 34 38 29 38 22 C38 15 43 10 50 10 Z"/>
  <path fill="#000000" d="M50 36 C30 36 20 46 20 46 L20 80 C20 82 22 84 24 84 C26 84 28 82 28 80 L28 65 L38 65 L38 145 C38 147 40 150 42 150 L58 150 C60 150 62 147 62 145 L62 65 L72 65 L72 80 C72 82 74 84 76 84 C78 84 80 82 80 80 L80 46 C80 46 70 36 50 36 Z"/>
  <path fill="#000000" d="M20 48 L18 60 C17.5 62 15 62.5 13.5 61 L6 54 C4.5 52.5 4.5 50 6 48.5 C7.5 47 10 47 11.5 48.5 L18 55 L20 48 Z"/>
  <path fill="#000000" d="M80 48 L82 60 C82.5 62 85 62.5 86.5 61 L94 54 C95.5 52.5 95.5 50 94 48.5 C92.5 47 90 47 88.5 48.5 L82 55 L80 48 Z"/>
</svg>
