<svg xmlns="http://www.w3.org/2000/svg" viewBox="0 0 100 150">
  <!-- Human silhouette in dynamic pose with one arm raised -->
  <ellipse fill="#000000" cx="45" cy="18" rx="10" ry="12"/>
  <path fill="#000000" d="M45 32 C40 32 35 34 30 38 L25 43 L20 50 C18 52 18 55 20 57 C22 59 25 59 27 57 L32 50 L35 60 L35 75 L32 110 L28 145 C27.5 147 29 150 31 150 L39 150 C41 150 43 148 43 145 L45 95 L47 145 C47 148 49 150 51 150 L59 150 C61 150 62.5 147 62 145 L58 110 L55 75 L55 55 L65 40 C68 36 68 32 65 29 C62 26 58 26 55 29 L48 36 C46 34 45.5 32 45 32 Z"/>
  <path fill="#000000" d="M55 50 L60 35 L70 20 C72 17 76 16 79 18 C82 20 83 24 81 27 L70 45 L60 60 L55 55 Z"/>
</svg>
