<svg xmlns="http://www.w3.org/2000/svg" xmlns:xlink="http://www.w3.org/1999/xlink" width="1080" zoomAndPan="magnify" viewBox="0 0 810 809.999993" height="1080" preserveAspectRatio="xMidYMid meet" version="1.0"><defs><clipPath id="c1dd62acec"><path d="M 0 77.808594 L 810 77.808594 L 810 732 L 0 732 Z M 0 77.808594 " clip-rule="nonzero"/></clipPath></defs><rect x="-81" width="972" fill="#ffffff" y="-80.999999" height="971.999992" fill-opacity="1"/><rect x="-81" width="972" fill="#ffffff" y="-80.999999" height="971.999992" fill-opacity="1"/><g clip-path="url(#c1dd62acec)"><path fill="#da3940" d="M 1270.078125 473.105469 L 1249.640625 542.433594 L 1040.371094 542.433594 L 1040.371094 532.660156 L 1067.460938 513.984375 L 1067.460938 290.9375 L 1040.371094 272.261719 L 1040.371094 262.492188 L 1259.414062 262.492188 L 1264.296875 267.375 L 1250.535156 330.042969 L 1240.765625 330.042969 C 1231.875 291.371094 1218.980469 286.050781 1155.003906 286.050781 L 1124.34375 286.050781 L 1124.34375 388.6875 L 1225.199219 382.472656 L 1227.425781 384.234375 L 1218.085938 417.121094 L 1215.425781 418.015625 L 1124.34375 409.140625 L 1124.34375 518.875 L 1153.226562 518.875 C 1205.207031 518.875 1232.324219 510.894531 1260.308594 469.566406 Z M 3425.457031 272.261719 L 3398.355469 290.9375 L 3398.355469 538.863281 L 3394.8125 542.433594 L 3351.707031 542.433594 L 3192.632812 322.484375 L 3192.632812 513.984375 L 3224.636719 532.660156 L 3224.636719 542.433594 L 3136.648438 542.433594 L 3136.648438 532.660156 L 3163.765625 513.984375 L 3163.765625 290.054688 L 3132.660156 272.261719 L 3132.660156 262.488281 L 3216.628906 262.488281 L 3369.472656 474.882812 L 3369.472656 290.9375 L 3337.484375 272.261719 L 3337.484375 262.488281 L 3425.460938 262.488281 Z M 2967.804688 513.984375 L 2999.792969 532.660156 L 2999.792969 542.433594 L 2884.28125 542.433594 L 2884.28125 532.660156 L 2911.386719 513.984375 L 2911.386719 290.9375 L 2884.28125 272.261719 L 2884.28125 262.488281 L 3001.585938 262.488281 C 3083.332031 262.488281 3125.539062 290.488281 3125.539062 344.25 C 3125.539062 405.570312 3066.011719 447.347656 2977.585938 447.347656 C 2973.582031 447.347656 2970.027344 447.347656 2967.800781 446.886719 Z M 2862.066406 272.261719 L 2834.515625 290.488281 L 2742.984375 542.4375 L 2690.109375 542.4375 L 2592.800781 291.824219 L 2564.378906 272.269531 L 2564.378906 262.496094 L 2679.007812 262.496094 L 2679.007812 272.269531 L 2651.023438 291.378906 L 2730.109375 494.441406 L 2733.214844 494.441406 L 2799.867188 290.949219 L 2771.421875 272.273438 L 2771.421875 262.503906 L 2862.070312 262.503906 Z M 2967.804688 423.804688 C 3030.007812 425.582031 3067.777344 395.804688 3067.777344 345.609375 C 3067.777344 304.269531 3046.46875 283.394531 3003.796875 283.394531 C 2991.800781 283.394531 2978.039062 286.488281 2967.804688 291.375 Z M 1787.699219 426.464844 C 1787.699219 496.226562 1741.039062 545.996094 1675.71875 545.996094 C 1656.621094 545.996094 1640.621094 541.097656 1625.078125 534.445312 L 1625.078125 602.867188 L 1657.066406 621.527344 L 1657.066406 631.300781 L 1543.753906 631.300781 L 1543.753906 621.527344 L 1571.320312 602.867188 L 1571.320312 359.378906 L 1543.753906 342.929688 L 1543.753906 333.144531 L 1617.070312 318.484375 L 1625.078125 323.832031 L 1625.078125 354.925781 C 1642.410156 332.710938 1669.949219 318.945312 1698.394531 318.945312 C 1751.257812 318.945312 1787.699219 365.148438 1787.699219 426.46875 Z M 1966.757812 367.816406 L 1956.988281 367.816406 C 1949.875 363.363281 1942.316406 361.136719 1934.757812 361.136719 C 1918.335938 361.136719 1902.78125 367.367188 1889.003906 379.351562 L 1889.003906 513.996094 L 1921.890625 532.671875 L 1921.890625 542.445312 L 1807.246094 542.445312 L 1807.246094 532.671875 L 1834.796875 513.996094 L 1834.796875 359.378906 L 1807.246094 342.929688 L 1807.246094 333.144531 L 1880.996094 318.488281 L 1889.003906 323.832031 L 1889.003906 358.917969 C 1903.214844 335.820312 1928.105469 319.382812 1952.984375 319.382812 C 1964.546875 319.382812 1974.316406 322.503906 1982.3125 328.257812 Z M 2133.816406 429.125 C 2104.050781 429.125 2070.730469 428.242188 2034.304688 426.910156 C 2039.191406 476.683594 2066.28125 505.550781 2110.714844 505.550781 C 2137.371094 505.550781 2154.703125 498.886719 2169.359375 486.453125 L 2178.699219 493.566406 C 2164.039062 528.652344 2131.15625 547.761719 2088.5 547.761719 C 2023.191406 547.761719 1979.203125 502.890625 1979.203125 434.460938 C 1979.203125 369.148438 2022.742188 318.480469 2088.945312 318.480469 C 2119.605469 318.480469 2142.707031 328.253906 2159.152344 347.378906 C 2175.589844 366.488281 2183.582031 391.351562 2183.148438 422.011719 L 2176.472656 428.691406 C 2167.59375 429.125 2153.371094 429.125 2133.8125 429.125 Z M 2221.789062 479.34375 L 2231.125 479.34375 C 2248.457031 507.777344 2273.78125 524.214844 2295.550781 524.214844 C 2315.109375 524.214844 2327.105469 513.992188 2327.105469 498.003906 C 2327.105469 479.777344 2316.4375 470.007812 2289.769531 459.800781 L 2269.777344 452.238281 C 2232.023438 438.015625 2209.355469 415.363281 2209.355469 385.585938 C 2209.355469 348.707031 2244.019531 320.273438 2295.550781 320.273438 C 2325.316406 320.273438 2353.75 327.382812 2374.648438 339.816406 L 2353.3125 376.261719 L 2344.425781 376.261719 C 2329.765625 353.59375 2311.554688 342.042969 2290.21875 342.042969 C 2271.121094 342.042969 2258.675781 352.699219 2258.675781 367.371094 C 2258.675781 383.359375 2270.226562 393.132812 2304.441406 406.472656 L 2327.105469 415.363281 C 2361.757812 428.691406 2376.863281 449.578125 2376.863281 476.683594 C 2376.863281 519.328125 2342.644531 546 2290.664062 546 C 2258.675781 546 2226.238281 537.558594 2202.691406 522.898438 Z M 2416.847656 479.34375 L 2426.183594 479.34375 C 2443.515625 507.777344 2468.84375 524.214844 2490.597656 524.214844 C 2510.15625 524.214844 2522.152344 513.992188 2522.152344 498.003906 C 2522.152344 479.777344 2511.5 470.007812 2484.832031 459.800781 L 2464.839844 452.238281 C 2427.070312 438.015625 2404.417969 415.363281 2404.417969 385.585938 C 2404.417969 348.707031 2439.066406 320.273438 2490.601562 320.273438 C 2520.390625 320.273438 2548.808594 327.382812 2569.695312 339.816406 L 2548.375 376.261719 L 2539.472656 376.261719 C 2524.816406 353.59375 2506.613281 342.042969 2485.277344 342.042969 C 2466.167969 342.042969 2453.722656 352.699219 2453.722656 367.371094 C 2453.722656 383.359375 2465.285156 393.132812 2499.5 406.472656 L 2522.152344 415.363281 C 2556.816406 428.691406 2571.921875 449.578125 2571.921875 476.683594 C 2571.921875 519.328125 2537.707031 546 2485.714844 546 C 2453.726562 546 2421.300781 537.558594 2397.738281 522.898438 Z M 1432.257812 430.019531 L 1497.566406 513.992188 L 1521.996094 532.667969 L 1521.996094 542.441406 L 1411.371094 542.441406 L 1411.371094 532.667969 L 1434.484375 515.324219 L 1390.035156 454.910156 L 1347.378906 515.324219 L 1373.148438 532.667969 L 1373.148438 542.441406 L 1285.175781 542.441406 L 1285.175781 532.667969 L 1312.292969 514.441406 L 1375.824219 436.25 L 1310.949219 353.59375 L 1286.074219 334.046875 L 1286.074219 324.273438 L 1396.25 324.273438 L 1396.25 334.046875 L 1373.597656 351.367188 L 1417.585938 411.355469 L 1460.242188 351.367188 L 1434.484375 334.046875 L 1434.484375 324.273438 L 1522.445312 324.273438 L 1522.445312 334.046875 L 1495.339844 352.261719 Z M 2126.703125 400.242188 C 2121.820312 361.136719 2103.617188 342.476562 2079.175781 342.476562 C 2052.519531 342.476562 2034.738281 368.699219 2033.410156 406.035156 Z M 1734.378906 449.117188 C 1734.378906 399.808594 1710.398438 358.914062 1671.730469 358.914062 C 1655.742188 358.914062 1640.1875 364.261719 1625.082031 375.363281 L 1625.082031 492.222656 C 1637.527344 511.332031 1656.625 520.671875 1679.277344 520.671875 C 1713.054688 520.671875 1734.378906 494 1734.378906 449.117188 Z M 204.757812 731.785156 C 112.796875 731.785156 54.132812 680.117188 54.132812 608.3125 C 54.132812 584.660156 61.140625 555.777344 88.28125 497.105469 L -8.039062 497.105469 L 80.394531 307.941406 L 695.992188 307.941406 C 710.003906 307.941406 719.632812 297.445312 719.632812 285.195312 C 719.632812 272.921875 710.003906 262.410156 695.992188 262.410156 L 197.746094 262.410156 L 241.535156 168.714844 C 268.679688 110.925781 327.351562 73.273438 391.265625 73.273438 L 600.5625 73.273438 C 721.394531 73.273438 810.714844 156.457031 810.714844 265.03125 C 810.714844 393.769531 692.503906 497.097656 555.90625 497.097656 L 151.355469 497.097656 C 139.082031 522.492188 153.09375 542.640625 182.871094 542.640625 L 505.109375 542.640625 C 558.523438 542.640625 599.679688 580.28125 599.679688 628.445312 C 599.679688 683.617188 546.277344 731.78125 485.839844 731.78125 Z M 204.757812 731.785156 " fill-opacity="1" fill-rule="evenodd"/></g></svg>