<svg xmlns="http://www.w3.org/2000/svg" xmlns:xlink="http://www.w3.org/1999/xlink" width="500" zoomAndPan="magnify" viewBox="0 0 375 374.999991" height="500" preserveAspectRatio="xMidYMid meet" version="1.0"><path fill="#455fe9" d="M 10 236.980469 C 10.714844 236.015625 11.316406 235.085938 12.15625 234.484375 C 14.917969 232.5 17.695312 230.519531 20.597656 228.75 C 31.78125 221.929688 43.011719 215.179688 54.238281 208.429688 C 66.257812 201.203125 78.136719 193.722656 90.386719 186.914062 C 95.941406 183.832031 103.949219 187.5625 103.972656 195.179688 C 104.050781 220.777344 104.0625 246.371094 103.957031 271.964844 C 103.933594 277.574219 108.175781 282.1875 114.136719 282.21875 C 119.824219 282.246094 125.515625 282.269531 131.207031 282.210938 C 137.3125 282.148438 141.367188 277.792969 141.367188 271.949219 C 141.359375 233.359375 141.375 194.765625 141.34375 156.171875 C 141.339844 152.214844 143.09375 149.453125 146.402344 147.464844 C 158.261719 140.339844 170.09375 133.171875 181.949219 126.042969 C 191.613281 120.234375 201.300781 114.460938 210.972656 108.664062 C 214.007812 106.847656 217.085938 105.089844 220.046875 103.15625 C 225.953125 99.289062 233.480469 101.917969 235.164062 108.566406 C 235.320312 109.195312 235.355469 109.875 235.355469 110.53125 C 235.363281 186.644531 235.363281 262.757812 235.363281 338.875 C 235.363281 344.046875 231.285156 348.152344 226.144531 348.152344 C 200.972656 348.15625 175.800781 348.128906 150.625 348.179688 C 145.890625 348.1875 141.148438 343.660156 141.289062 338.890625 C 141.546875 329.855469 141.25 320.800781 141.402344 311.757812 C 141.5 305.96875 137.273438 300.898438 130.816406 301.085938 C 125.332031 301.246094 119.835938 301.179688 114.347656 301.101562 C 108.171875 301.011719 103.84375 305.464844 103.957031 311.398438 C 104.132812 320.507812 103.96875 329.621094 104.015625 338.734375 C 104.042969 343.957031 99.777344 348.167969 94.644531 348.164062 C 69.671875 348.144531 44.699219 348.140625 19.726562 348.167969 C 15.714844 348.171875 12.820312 346.410156 10.808594 343.019531 C 10.695312 342.824219 10.46875 342.695312 10.148438 342.53125 C 10 307.410156 10 272.289062 10 236.980469 Z M 10 236.980469 " fill-opacity="1" fill-rule="nonzero"/><path fill="#455fe9" d="M 366.722656 342.339844 C 366.414062 342.761719 366.007812 342.933594 365.8125 343.242188 C 363.832031 346.339844 361.125 348.15625 357.351562 348.15625 C 332.316406 348.15625 307.277344 348.113281 282.242188 348.191406 C 277.503906 348.203125 272.691406 344.136719 272.695312 338.691406 C 272.738281 276.113281 272.753906 213.539062 272.671875 150.964844 C 272.664062 145.761719 276.871094 141.046875 282.671875 141.074219 C 303.492188 141.171875 324.3125 141.113281 345.132812 141.113281 C 348.816406 141.113281 352.5 141.175781 356.179688 141.09375 C 360.429688 141 363.738281 142.535156 365.910156 146.285156 C 366.066406 146.558594 366.324219 146.773438 366.628906 146.878906 C 366.722656 211.875 366.722656 277.011719 366.722656 342.339844 Z M 366.722656 342.339844 " fill-opacity="1" fill-rule="nonzero"/><path fill="#455fe9" d="M 273.191406 79.199219 C 272.917969 75.414062 275.695312 73.609375 278.289062 72.03125 C 294.949219 61.894531 311.699219 51.894531 328.417969 41.851562 C 336.382812 37.066406 344.320312 32.226562 352.332031 27.527344 C 356.988281 24.796875 362.367188 26.167969 365.183594 30.363281 C 365.582031 30.957031 366.082031 31.480469 366.628906 31.898438 C 366.722656 60.042969 366.722656 88.328125 366.722656 116.800781 C 366.375 117.277344 365.929688 117.5 365.6875 117.859375 C 363.75 120.773438 361.296875 122.644531 357.570312 122.640625 C 332.46875 122.597656 307.367188 122.589844 282.265625 122.648438 C 278.546875 122.65625 274.03125 120.144531 273.230469 115.46875 C 273.539062 114.558594 273.898438 113.882812 273.902344 113.207031 C 273.9375 102.585938 273.941406 91.964844 273.894531 81.347656 C 273.890625 80.628906 273.4375 79.914062 273.191406 79.199219 Z M 273.191406 79.199219 " fill-opacity="1" fill-rule="nonzero"/><path fill="#455fe9" d="M 273.15625 79.367188 C 273.4375 79.914062 273.890625 80.628906 273.894531 81.347656 C 273.941406 91.964844 273.9375 102.585938 273.902344 113.207031 C 273.898438 113.882812 273.539062 114.558594 273.210938 115.316406 C 272.960938 114.777344 272.738281 114.160156 272.738281 113.542969 C 272.71875 102.976562 272.714844 92.410156 272.742188 81.84375 C 272.742188 81.074219 272.988281 80.304688 273.15625 79.367188 Z M 273.15625 79.367188 " fill-opacity="1" fill-rule="nonzero"/></svg>