<svg version="1.2" xmlns="http://www.w3.org/2000/svg" viewBox="0 0 1540 1226" width="1540" height="1226">
	<title>NordVPNhorizontal-svg</title>
	<style>
		.s0 { fill: #4687ff } 
	</style>
	<g id="Layer">
		<path id="Layer" fill-rule="evenodd" class="s0" d="m147.1 1225.4c-23.7-32.7-44.8-67.2-63-103.2-18.3-36-33.7-73.4-46.1-111.8-12.4-38.4-21.8-77.8-28.1-117.7-6.2-39.9-9.3-80.2-9.3-120.6 0-426.4 344.6-772.1 769.6-772.1 425 0 769.5 345.7 769.5 772.1 0.1 40.4-3 80.7-9.3 120.6-6.2 39.9-15.6 79.3-28 117.7-12.4 38.4-27.8 75.8-46.1 111.8-18.3 36-39.3 70.5-63 103.2l-369.6-602.2-35.7 60.4 36.2 168.2-254-436-157.1 266.1 36.6 169.9-133.2-228.3z"/>
	</g>
</svg>