<svg xmlns="http://www.w3.org/2000/svg" xmlns:xlink="http://www.w3.org/1999/xlink" width="1080" zoomAndPan="magnify" viewBox="0 0 810 809.999993" height="1080" preserveAspectRatio="xMidYMid meet" version="1.0"><defs><clipPath id="8a8ece66a8"><path d="M 86 23.074219 L 711 23.074219 L 711 786.574219 L 86 786.574219 Z M 86 23.074219 " clip-rule="nonzero"/></clipPath></defs><g clip-path="url(#8a8ece66a8)"><path fill="#1ebfbf" d="M 560.878906 23.074219 C 580.734375 23.574219 599.472656 23.9375 614.597656 26.523438 C 646.261719 34.296875 676.097656 50.9375 691.605469 84.25 C 691.605469 84.25 695.089844 90.171875 697.625 107.242188 C 700.160156 124.316406 704.011719 171.6875 704.011719 171.6875 C 709.324219 250.355469 709.898438 332.179688 710.75 409.28125 C 709.378906 439.460938 700.65625 467.8125 687.425781 493.734375 C 655.078125 557.101562 595.804688 605.929688 551.230469 631.335938 C 440.917969 685.457031 334.234375 733.644531 243.929688 772.460938 C 148.332031 806.980469 104.941406 772.332031 90.546875 731.203125 C 87.636719 720.007812 86.628906 708.484375 87.074219 697.839844 C 87.074219 697.839844 87.953125 672.328125 94.566406 630.421875 C 101.179688 588.519531 149.917969 286.804688 202.265625 132.136719 C 215.476562 96.402344 264.730469 29.304688 381.894531 23.074219 Z M 560.878906 23.074219 " fill-opacity="1" fill-rule="nonzero"/></g><path fill="#f9f9f9" d="M 541.328125 164.253906 C 549.835938 164.253906 556.730469 170.910156 556.730469 179.117188 L 556.730469 231.132812 C 556.730469 239.339844 549.835938 245.992188 541.328125 245.992188 L 533.628906 245.992188 C 482.589844 245.992188 441.214844 285.914062 441.214844 335.160156 L 441.214844 415.039062 C 441.214844 509.429688 361.914062 585.945312 264.09375 585.945312 L 256.394531 585.945312 C 247.886719 585.945312 240.992188 579.292969 240.992188 571.085938 L 240.992188 519.066406 C 240.992188 510.859375 247.886719 504.207031 256.394531 504.207031 L 264.09375 504.207031 C 315.132812 504.207031 356.507812 464.289062 356.507812 415.039062 L 356.507812 335.160156 C 356.507812 240.773438 435.808594 164.253906 533.628906 164.253906 Z M 541.328125 164.253906 " fill-opacity="1" fill-rule="nonzero"/></svg>